<svg xmlns="http://www.w3.org/2000/svg" viewBox="0 0 207.73 198.12"><defs><style>.cls-1{fill:#fff;}</style></defs><g id="レイヤー_2" data-name="レイヤー 2"><g id="レイヤー_1-2" data-name="レイヤー 1"><path class="cls-1" d="M207.43,25.09a5,5,0,0,0-6.25-3.37A4.89,4.89,0,0,0,198,26.85L170,38.68a15.55,15.55,0,0,0-1.64-1.09,16.62,16.62,0,0,0-3.92-1.65L155.26,8.66A4.9,4.9,0,0,0,157,2.88,5,5,0,0,0,150.34.43a5,5,0,0,0-2.93,6.47,4.79,4.79,0,0,0,4.07,2.86l5.36,26a11.13,11.13,0,0,0-7.12,5.15,10.39,10.39,0,0,0-.8,1.81c-7.9-1.58-15.9-2.55-23.33-3.55A541.58,541.58,0,0,0,61,34.32c-13.32-.2-26.73-1.42-38.29,6.37C5.64,52.16,2.85,70.33,1.1,89.29-.82,110-.39,131.07,3.74,151.49c2.78,13.74,13.68,27.58,27.31,32.6-.19,2.32-2.05,4.57-5.58,6.7h0c-1.65,1-5.78,2.89-7.81,2.76a1.19,1.19,0,0,0-.66,2.23c3.13,1.71,8.06,2.34,13,2.34a62.15,62.15,0,0,0,12.18-1.19c6-1.27,12.18-5.34,15.17-10.81a544.52,544.52,0,0,0,104.69-11.07c14.81-3.41,31-17.07,34.15-32.41C200,118.13,204.94,79.73,185.74,60a48.24,48.24,0,0,0-9.8-7.69,12.2,12.2,0,0,0-1-7.67l24.77-14.2a4.79,4.79,0,0,0,4.84,1.16A5,5,0,0,0,207.43,25.09Zm-64.29,148a4.93,4.93,0,1,1,4.56-4.92A4.75,4.75,0,0,1,143.14,173.07ZM160,169.56a4.93,4.93,0,1,1,4.57-4.92A4.75,4.75,0,0,1,160,169.56Zm14.75-5.62a4.93,4.93,0,1,1,4.57-4.92A4.75,4.75,0,0,1,174.74,163.94Zm9.16-44.54c-.65,12.52-1.49,26.68-16.16,30.38a530,530,0,0,1-62.6,8.84c-10,.8-20,1.52-30,1.54-3.29,0-7,.38-10.83.55-5.38.24-10.83.07-15.11-2.18C36.82,152,38.23,131.7,37.72,120a233.12,233.12,0,0,1,2.71-46.31C41.8,65,50.12,60.1,58.21,59.9,94.65,59,132,63.4,167.74,70.63,188.6,74.86,184.69,104.11,183.9,119.4Z"/></g></g></svg>